<svg width="375" height="812" viewBox="0 0 375 812" fill="none" xmlns="http://www.w3.org/2000/svg">
<g clip-path="url(#clip0_61385_181)">
<rect width="375" height="812" fill="url(#paint0_linear_61385_181)"/>
<circle cx="278" cy="99" r="300" transform="rotate(-180 278 99)" fill="url(#paint1_radial_61385_181)"/>
<circle cx="98" cy="99" r="300" transform="rotate(-180 98 99)" fill="url(#paint2_radial_61385_181)"/>
<mask id="mask0_61385_181" style="mask-type:alpha" maskUnits="userSpaceOnUse" x="0" y="0" width="375" height="812">
<rect width="375" height="812" fill="#202024"/>
</mask>
<g mask="url(#mask0_61385_181)">
<path d="M375 168.101V-310.699L187.478 -418.486L-0.0446777 -310.699V168.101L187.478 275.894L375 168.101Z" fill="url(#paint3_linear_61385_181)"/>
<g style="mix-blend-mode:luminosity" opacity="0.4">
<path d="M1.83663 61.3931V168.797L95.1275 222.505L188.418 168.797V61.3931L95.1275 7.68577L1.83663 61.3931Z" fill="url(#paint4_linear_61385_181)"/>
<path d="M1.83663 -46.0166V61.3877L95.1275 115.095L188.418 61.3877V-46.0166L95.1275 -99.7239L1.83663 -46.0166Z" fill="url(#paint5_linear_61385_181)"/>
<path d="M281.709 -99.6961V7.70821L188.418 61.4155L95.1274 7.70821V-99.6961L188.418 -153.403L281.709 -99.6961Z" fill="url(#paint6_linear_61385_181)"/>
<path d="M188.418 168.797V61.3927L281.709 7.68539L375 61.3927V168.797L281.709 222.504L188.418 168.797Z" fill="url(#paint7_linear_61385_181)"/>
<path d="M375 -46.0166V61.3877L281.709 115.095L188.418 61.3877V-46.0166L281.709 -99.7239L375 -46.0166Z" fill="url(#paint8_linear_61385_181)"/>
<path d="M281.709 222.527V115.123L188.418 61.4155L95.1274 115.123L95.1274 222.527L188.418 276.235L281.709 222.527Z" fill="url(#paint9_linear_61385_181)"/>
</g>
</g>
</g>
<defs>
<linearGradient id="paint0_linear_61385_181" x1="-7.67273e-06" y1="19.261" x2="461.894" y2="73.6176" gradientUnits="userSpaceOnUse">
<stop stop-color="#00AEE5" stop-opacity="0.97"/>
<stop offset="1" stop-color="#FFCD1E"/>
</linearGradient>
<radialGradient id="paint1_radial_61385_181" cx="0" cy="0" r="1" gradientUnits="userSpaceOnUse" gradientTransform="translate(278 99) rotate(90) scale(300)">
<stop stop-color="#FFC323"/>
<stop offset="1" stop-color="#121214" stop-opacity="0"/>
</radialGradient>
<radialGradient id="paint2_radial_61385_181" cx="0" cy="0" r="1" gradientUnits="userSpaceOnUse" gradientTransform="translate(98 99) rotate(90) scale(300)">
<stop stop-color="#FF3D6E"/>
<stop offset="1" stop-color="#121214" stop-opacity="0"/>
</radialGradient>
<linearGradient id="paint3_linear_61385_181" x1="-0.0446854" y1="-402.015" x2="459.595" y2="-338.754" gradientUnits="userSpaceOnUse">
<stop stop-color="#0094FF"/>
<stop offset="1" stop-color="#FFCD1E"/>
</linearGradient>
<linearGradient id="paint4_linear_61385_181" x1="188.418" y1="217.409" x2="-33.7" y2="168.249" gradientUnits="userSpaceOnUse">
<stop stop-color="#0094FF"/>
<stop offset="1" stop-color="#FFCD1E"/>
</linearGradient>
<linearGradient id="paint5_linear_61385_181" x1="188.418" y1="109.999" x2="-33.7" y2="60.839" gradientUnits="userSpaceOnUse">
<stop stop-color="#0094FF"/>
<stop offset="1" stop-color="#FFCD1E"/>
</linearGradient>
<linearGradient id="paint6_linear_61385_181" x1="95.1274" y1="56.3199" x2="317.246" y2="7.15953" gradientUnits="userSpaceOnUse">
<stop stop-color="#0094FF"/>
<stop offset="1" stop-color="#FFCD1E"/>
</linearGradient>
<linearGradient id="paint7_linear_61385_181" x1="375" y1="12.781" x2="152.882" y2="61.9414" gradientUnits="userSpaceOnUse">
<stop stop-color="#0094FF"/>
<stop offset="1" stop-color="#FFCD1E"/>
</linearGradient>
<linearGradient id="paint8_linear_61385_181" x1="188.418" y1="109.999" x2="410.537" y2="60.8391" gradientUnits="userSpaceOnUse">
<stop stop-color="#0094FF"/>
<stop offset="1" stop-color="#FFCD1E"/>
</linearGradient>
<linearGradient id="paint9_linear_61385_181" x1="95.1274" y1="66.5111" x2="317.246" y2="115.672" gradientUnits="userSpaceOnUse">
<stop stop-color="#0094FF"/>
<stop offset="1" stop-color="#FFCD1E"/>
</linearGradient>
<clipPath id="clip0_61385_181">
<rect width="375" height="812" fill="white"/>
</clipPath>
</defs>
</svg>

